<svg width="296" height="296" viewBox="0 0 296 296" fill="none" xmlns="http://www.w3.org/2000/svg">
<path d="M124.5 39.95C80 49.35 45.6 83.05 35 127.75C34 132.25 33.5 133.05 31.6 132.75C29.6 132.45 29.5 131.95 29.2 114.45L29 96.45L33.7 92.95C39.3 88.85 41.7 83.25 40.5 77.25C39.6 72.25 33.6 66.35 28.6 65.45C20.3 63.85 11.9 69.65 10.5 77.85C9.5 83.65 13.1 90.65 18.2 93.45L22 95.45V114.25V132.95L19.4 133.95C10.6 137.35 3 154.35 3 170.95C3 192.85 13 208.95 26.5 208.95H31.6L32.8 214.75C34.7 224.15 40.8 231.65 48.8 234.55C51.4 235.45 58.8 235.85 73.1 235.95H93.7L96.4 240.05C104.8 252.65 132.6 260.75 157.9 257.95C178.1 255.75 193.1 248.95 199 239.45L201.2 235.95H222.1C244.6 235.95 246.7 235.55 253.3 230.55C257.6 227.25 261.8 219.55 262.6 213.55L263.3 208.95H268.8C278.2 208.95 284.4 203.15 289.2 189.85C292.5 180.55 292.5 161.35 289.2 151.95C286.4 143.75 281.3 136.75 276.6 134.55L273 132.85V114.45V95.95L277 93.45C281.7 90.45 283.9 87.45 284.7 82.65C286.4 71.95 275.6 62.65 265 65.85C260 67.35 255.4 72.65 254.5 77.85C253.5 83.65 257.1 90.65 262.3 93.45L266 95.45L265.8 113.95C265.5 131.95 265.4 132.45 263.4 132.75C261.5 133.05 261 132.15 259 124.05C254.2 104.65 243.7 86.55 228.6 71.45C211.9 54.75 193.1 44.65 170.2 39.95C157 37.35 137.2 37.35 124.5 39.95ZM159.1 46.95C183.3 49.75 205.9 60.65 222.8 77.75C238.8 94.05 248.7 113.05 252.5 134.85C254.6 146.55 254.7 212.45 252.6 217.25C250.9 221.55 245.9 225.65 241 226.95C238.4 227.65 207 227.95 145.3 227.75C42.7 227.45 50.2 227.95 44.3 220.25L41.5 216.65V176.55V136.45L44.2 126.75C54.6 88.65 82.8 60.25 120.1 49.95C133.2 46.35 145.7 45.45 159.1 46.95ZM30.7 75.15C34 78.15 33.8 83.15 30.4 85.85C26.9 88.65 23.5 88.45 20.5 85.45C13.5 78.55 23.5 68.45 30.7 75.15ZM274.7 75.15C279.3 79.45 276.1 87.95 270 87.95C265.9 87.95 262 84.45 262 80.65C262 73.95 269.8 70.55 274.7 75.15ZM32.6 144.05C32.3 145.75 32 159.25 32 174.05V200.95H28C22.6 200.95 17.8 196.65 14.8 189.15C12.9 184.25 12.6 181.55 12.6 170.95C12.6 160.35 12.9 157.65 14.8 152.75C18 144.95 22.6 140.95 28.7 140.95H33.3L32.6 144.05ZM272.3 142.05C275.2 143.35 279.6 149.95 281.3 155.45C282 157.75 282.5 164.85 282.5 171.95C282.4 182.75 282.1 185.15 280.1 189.55C276.9 196.75 273.2 200.05 267.6 200.65L263.1 201.25L262.8 171.85C262.6 155.65 262.6 142.15 262.8 141.65C263.3 140.55 269.6 140.75 272.3 142.05ZM190.8 237.15C190.1 239.35 181.3 244.75 174.8 246.85C158.6 252.15 137.8 252.25 120.8 246.95C114.1 244.95 105 239.55 104.2 237.15C103.9 236.25 113 235.95 147.5 235.95C182 235.95 191.1 236.25 190.8 237.15Z" fill="#F7931A"/>
<path d="M138.5 74.05C126.7 74.95 118.5 77.15 107.5 82.55C91 90.55 79.6 101.95 71.5 118.45C64.6 132.45 63.8 137.45 64.2 163.85C64.5 184.75 64.7 186.75 66.6 190.45C70.9 198.35 76.4 202.15 86.4 204.05C89.9 204.65 113.9 204.95 151.2 204.75C204.4 204.45 210.9 204.25 214.8 202.75C221.4 200.05 224.3 197.55 227.6 191.75L230.5 186.45L230.8 163.05C231.1 143.95 230.8 138.25 229.5 132.05C220.9 93.25 185 70.35 138.5 74.05ZM113.5 112.15C116.5 113.55 116.5 116.65 113.5 116.15C104.6 114.55 103.1 114.75 100.1 117.75C94 123.85 95.6 133.55 103.3 137.35C106.9 139.05 107.5 139.05 111 137.65C114.5 136.35 114.9 136.35 115.5 137.75C116.8 141.35 108.7 143.75 102.5 141.75C90.6 137.75 88.5 119.45 99.3 112.95C102.9 110.75 109.6 110.35 113.5 112.15ZM171 120.65C172.8 126.05 175 133.05 176 136.15L177.8 141.95H175.6C173.8 141.95 173.1 141.05 172.1 137.95L170.9 133.95H165H159.1L157.9 137.95C156.9 141.05 156.2 141.95 154.4 141.95H152.1L155.1 133.15C156.7 128.35 159 121.45 160.1 117.65C162 111.35 162.3 110.95 165 110.95C167.8 110.95 168 111.35 171 120.65ZM202 112.95C202 114.65 201.3 114.95 197 114.95H192V128.45C192 141.25 191.9 141.95 190 141.95C188.1 141.95 188 141.25 188 128.45V114.95H183C178.7 114.95 178 114.65 178 112.95C178 111.05 178.7 110.95 190 110.95C201.3 110.95 202 111.05 202 112.95ZM122.1 155.65C125.6 157.75 126.6 160.75 125.1 165.05C124.2 167.55 124.3 168.45 125.6 169.65C129.7 173.75 129.5 179.65 125.3 182.95C123.2 184.55 121.2 184.95 114.9 184.95H107V169.45V153.95H113.1C117.1 153.95 120.2 154.55 122.1 155.65ZM153.7 155.95C161.7 160.75 162.2 176.75 154.5 182.75C150.5 185.95 145.8 186.55 141.4 184.35C136.2 181.75 134 178.25 133.3 171.75C132.6 165.05 135.2 158.45 139.7 155.75C143.5 153.45 149.8 153.55 153.7 155.95ZM188 155.95C188 157.65 187.3 157.95 183 157.95H178V171.45C178 184.25 177.9 184.95 176 184.95C174.1 184.95 174 184.25 174 171.45V157.95H169C164.7 157.95 164 157.65 164 155.95C164 154.05 164.7 153.95 176 153.95C187.3 153.95 188 154.05 188 155.95Z" fill="#F7931A"/>
<rect x="88" y="107" width="121" height="86" fill="#F7931A"/>
<path d="M109.732 103.36C111.14 103.36 113.53 103.616 116.9 104.128L118.436 104.32L118.244 108.224C114.831 107.84 112.314 107.648 110.692 107.648C107.066 107.648 104.591 108.523 103.268 110.272C101.988 111.979 101.348 115.179 101.348 119.872C101.348 124.523 101.946 127.765 103.14 129.6C104.378 131.435 106.916 132.352 110.756 132.352L118.308 131.776L118.5 135.744C114.532 136.341 111.567 136.64 109.604 136.64C104.612 136.64 101.156 135.36 99.2363 132.8C97.3589 130.24 96.4203 125.931 96.4203 119.872C96.4203 113.771 97.4443 109.504 99.4923 107.072C101.54 104.597 104.954 103.36 109.732 103.36ZM123.856 119.936C123.856 114.091 124.902 109.867 126.992 107.264C129.083 104.661 132.603 103.36 137.552 103.36C142.544 103.36 146.064 104.661 148.112 107.264C150.203 109.867 151.248 114.091 151.248 119.936C151.248 125.781 150.267 130.027 148.304 132.672C146.342 135.317 142.758 136.64 137.552 136.64C132.347 136.64 128.763 135.317 126.8 132.672C124.838 130.027 123.856 125.781 123.856 119.936ZM128.784 119.872C128.784 124.523 129.339 127.787 130.448 129.664C131.6 131.541 133.968 132.48 137.552 132.48C141.179 132.48 143.547 131.563 144.656 129.728C145.766 127.851 146.32 124.565 146.32 119.872C146.32 115.179 145.702 111.957 144.464 110.208C143.227 108.416 140.923 107.52 137.552 107.52C134.224 107.52 131.92 108.416 130.64 110.208C129.403 111.957 128.784 115.179 128.784 119.872ZM159.077 136V104H163.877V136H159.077ZM159.077 96.768V91.2H163.877V96.768H159.077ZM177.877 136H173.077V104H177.813V106.24C181.269 104.32 184.575 103.36 187.733 103.36C191.999 103.36 194.858 104.512 196.309 106.816C197.802 109.12 198.549 113.216 198.549 119.104V136H193.813V119.232C193.813 114.795 193.365 111.765 192.469 110.144C191.615 108.48 189.759 107.648 186.901 107.648C185.535 107.648 184.085 107.861 182.549 108.288C181.055 108.672 179.903 109.056 179.093 109.44L177.877 110.016V136Z" fill="white"/>
<path d="M122.408 162.36C126.718 162.36 129.726 163.597 131.432 166.072C133.182 168.504 134.056 172.792 134.056 178.936C134.056 185.08 132.968 189.411 130.792 191.928C128.659 194.403 124.712 195.64 118.952 195.64C117.16 195.64 114.195 195.469 110.056 195.128L108.264 194.936V149.048H113V164.6C116.243 163.107 119.379 162.36 122.408 162.36ZM118.888 191.352C123.07 191.352 125.822 190.413 127.144 188.536C128.51 186.616 129.192 183.395 129.192 178.872C129.192 174.349 128.659 171.192 127.592 169.4C126.526 167.565 124.627 166.648 121.896 166.648C119.422 166.648 116.883 167.117 114.28 168.056L113 168.504V191.032C115.774 191.245 117.736 191.352 118.888 191.352ZM140.544 178.936C140.544 173.091 141.589 168.867 143.68 166.264C145.77 163.661 149.29 162.36 154.24 162.36C159.232 162.36 162.752 163.661 164.8 166.264C166.89 168.867 167.936 173.091 167.936 178.936C167.936 184.781 166.954 189.027 164.992 191.672C163.029 194.317 159.445 195.64 154.24 195.64C149.034 195.64 145.45 194.317 143.488 191.672C141.525 189.027 140.544 184.781 140.544 178.936ZM145.472 178.872C145.472 183.523 146.026 186.787 147.136 188.664C148.288 190.541 150.656 191.48 154.24 191.48C157.866 191.48 160.234 190.563 161.344 188.728C162.453 186.851 163.008 183.565 163.008 178.872C163.008 174.179 162.389 170.957 161.152 169.208C159.914 167.416 157.61 166.52 154.24 166.52C150.912 166.52 148.608 167.416 147.328 169.208C146.09 170.957 145.472 174.179 145.472 178.872ZM192.09 167.16H181.914V182.456C181.914 186.125 182.17 188.536 182.682 189.688C183.237 190.84 184.517 191.416 186.522 191.416L192.218 191.032L192.538 195C189.68 195.469 187.504 195.704 186.01 195.704C182.682 195.704 180.378 194.893 179.098 193.272C177.818 191.651 177.178 188.557 177.178 183.992V167.16H172.634V163H177.178V153.208H181.914V163H192.09V167.16Z" fill="white"/>
</svg>
